<svg width="20" height="20" viewBox="0 0 20 20" fill="none" xmlns="http://www.w3.org/2000/svg">
<path d="M6.58004 10.7298L14.7488 5.96908C15.1511 5.7183 15.2772 5.99805 15.0956 6.19127L8.31618 11.8561L7.96833 14.6834L6.58004 10.7298ZM16.9422 3.78082L2.60238 8.82447C1.81812 9.03477 1.84311 9.75435 2.42315 9.92743L6.01618 10.9691L7.39088 14.8844C7.55811 15.3129 7.69465 15.4743 7.98003 15.4779C8.27999 15.4818 8.39484 15.3801 8.70631 15.1242C9.07105 14.806 9.62661 14.3053 10.5044 13.5124L14.2418 16.0775C14.9296 16.4299 15.4262 16.2473 15.5974 15.4842L17.9405 4.71776C18.1917 3.78239 17.6002 3.50338 16.9422 3.78082Z" fill="url(#paint0_linear_2339_1280)"/>
<defs>
<linearGradient id="paint0_linear_2339_1280" x1="18.0015" y1="11.6704" x2="2.00155" y2="11.6704" gradientUnits="userSpaceOnUse">
<stop stop-color="#5A83EB"/>
<stop offset="1" stop-color="#3A67DA"/>
</linearGradient>
</defs>
</svg>
