<svg width="20" height="20" viewBox="0 0 20 20" fill="none" xmlns="http://www.w3.org/2000/svg">
<path fill-rule="evenodd" clip-rule="evenodd" d="M14.1869 11.7117C13.9715 11.5947 12.9136 11.0281 12.7153 10.9481C12.5169 10.8682 12.3722 10.8266 12.2175 11.0391C12.0631 11.2508 11.6242 11.7254 11.4912 11.8658C11.3576 12.0064 11.2291 12.0196 11.0136 11.9023C10.7988 11.7855 10.1007 11.5294 9.29101 10.757C8.66107 10.1561 8.24783 9.42733 8.12796 9.20494C8.00808 8.98232 8.12716 8.86892 8.24099 8.76468C8.3433 8.67063 8.47002 8.5183 8.58442 8.3955C8.69859 8.27259 8.73885 8.18341 8.81744 8.0408C8.89591 7.89843 8.86432 7.76986 8.81345 7.65895C8.76258 7.54849 8.36451 6.46109 8.19822 6.0188C8.03192 5.5765 7.84669 5.64226 7.71872 5.63717C7.59074 5.63286 7.44532 5.60898 7.29898 5.60355C7.15276 5.59812 6.91301 5.64384 6.70405 5.85401C6.49487 6.06429 5.90838 6.5694 5.868 7.6405C5.82751 8.71081 6.57414 9.77478 6.67827 9.92372C6.78252 10.0731 8.104 12.3939 10.3001 13.3484C12.4967 14.3026 12.5083 14.0116 12.9112 13.9903C13.3145 13.9692 14.2286 13.5119 14.4307 13.0108C14.6327 12.5098 14.6488 12.0741 14.5975 11.9814C14.546 11.8886 14.4021 11.8284 14.1869 11.7117ZM10.1587 16.8712C8.70635 16.8712 7.35361 16.4388 6.22409 15.6979L3.47574 16.5709L4.36904 13.9356C3.51292 12.7656 3.00719 11.328 3.00719 9.77478C3.00719 5.86159 6.21542 2.67794 10.1587 2.67794C14.1026 2.67794 17.3107 5.86159 17.3107 9.77478C17.3107 13.6877 14.1026 16.8712 10.1587 16.8712ZM10.1587 1.25C5.41428 1.25 1.56799 5.06653 1.56799 9.77478C1.56799 11.3853 2.01841 12.8917 2.80062 14.1765L1.25 18.75L6.00635 17.2392C7.23727 17.9143 8.65263 18.2994 10.1587 18.2994C14.9038 18.2994 18.75 14.4825 18.75 9.77478C18.75 5.06653 14.9038 1.25 10.1587 1.25Z" fill="url(#paint0_linear_2339_1282)"/>
<defs>
<linearGradient id="paint0_linear_2339_1282" x1="18.7522" y1="12.375" x2="1.25223" y2="12.375" gradientUnits="userSpaceOnUse">
<stop stop-color="#5A83EB"/>
<stop offset="1" stop-color="#3A67DA"/>
</linearGradient>
</defs>
</svg>
