<svg width="33" height="32" viewBox="0 0 33 32" fill="none" xmlns="http://www.w3.org/2000/svg">
<rect x="0.969727" width="32" height="32" rx="16" fill="url(#paint0_linear_2416_2533)"/>
<path d="M14.2338 16.5839L20.7687 12.7753C21.0906 12.5746 21.1915 12.7984 21.0462 12.953L15.6227 17.4849L15.3444 19.7467L14.2338 16.5839ZM22.5235 11.0247L11.0516 15.0596C10.4242 15.2278 10.4442 15.8035 10.9083 15.9419L13.7827 16.7753L14.8824 19.9075C15.0162 20.2503 15.1254 20.3795 15.3537 20.3824C15.5937 20.3855 15.6856 20.3041 15.9348 20.0994C16.2266 19.8448 16.671 19.4442 17.3733 18.8099L20.3632 20.862C20.9134 21.1439 21.3107 20.9978 21.4476 20.3873L23.3221 11.7742C23.5231 11.0259 23.0499 10.8027 22.5235 11.0247Z" fill="white"/>
<defs>
<linearGradient id="paint0_linear_2416_2533" x1="0.975904" y1="16" x2="32.9086" y2="14.5337" gradientUnits="userSpaceOnUse">
<stop stop-color="#242B3F"/>
<stop offset="1" stop-color="#5A6174"/>
</linearGradient>
</defs>
</svg>
