<svg width="33" height="32" viewBox="0 0 33 32" fill="none" xmlns="http://www.w3.org/2000/svg">
<rect x="0.969727" width="32" height="32" rx="16" fill="url(#paint0_linear_2416_2538)"/>
<path fill-rule="evenodd" clip-rule="evenodd" d="M20.3192 17.3693C20.1469 17.2757 19.3006 16.8225 19.1419 16.7585C18.9833 16.6945 18.8675 16.6613 18.7437 16.8313C18.6202 17.0007 18.2691 17.3803 18.1627 17.4927C18.0558 17.6051 17.953 17.6157 17.7806 17.5218C17.6087 17.4284 17.0503 17.2235 16.4025 16.6056C15.8986 16.1249 15.568 15.5419 15.4721 15.3639C15.3762 15.1859 15.4715 15.0951 15.5625 15.0117C15.6444 14.9365 15.7457 14.8146 15.8373 14.7164C15.9286 14.6181 15.9608 14.5467 16.0237 14.4326C16.0865 14.3187 16.0612 14.2159 16.0205 14.1272C15.9798 14.0388 15.6613 13.1689 15.5283 12.815C15.3953 12.4612 15.2471 12.5138 15.1447 12.5097C15.0423 12.5063 14.926 12.4872 14.8089 12.4828C14.6919 12.4785 14.5001 12.5151 14.333 12.6832C14.1656 12.8514 13.6964 13.2555 13.6641 14.1124C13.6317 14.9686 14.229 15.8198 14.3123 15.939C14.3957 16.0585 15.4529 17.9151 17.2098 18.6787C18.9671 19.4421 18.9763 19.2093 19.2987 19.1922C19.6214 19.1754 20.3526 18.8095 20.5143 18.4087C20.6759 18.0078 20.6888 17.6593 20.6477 17.5851C20.6066 17.5109 20.4914 17.4627 20.3192 17.3693ZM17.0967 21.4969C15.9348 21.4969 14.8526 21.1511 13.949 20.5583L11.7503 21.2567L12.465 19.1485C11.7801 18.2125 11.3755 17.0624 11.3755 15.8198C11.3755 12.6893 13.9421 10.1424 17.0967 10.1424C20.2518 10.1424 22.8183 12.6893 22.8183 15.8198C22.8183 18.9502 20.2518 21.4969 17.0967 21.4969ZM17.0967 9C13.3011 9 10.2241 12.0532 10.2241 15.8198C10.2241 17.1082 10.5845 18.3133 11.2102 19.3412L9.96973 23L13.7748 21.7914C14.7595 22.3314 15.8918 22.6396 17.0967 22.6396C20.8928 22.6396 23.9697 19.586 23.9697 15.8198C23.9697 12.0532 20.8928 9 17.0967 9Z" fill="white"/>
<defs>
<linearGradient id="paint0_linear_2416_2538" x1="0.975904" y1="16" x2="32.9086" y2="14.5337" gradientUnits="userSpaceOnUse">
<stop stop-color="#242B3F"/>
<stop offset="1" stop-color="#5A6174"/>
</linearGradient>
</defs>
</svg>
