<svg width="16" height="17" viewBox="0 0 16 17" fill="none" xmlns="http://www.w3.org/2000/svg">
<g id="Telegram">
<path id="path274" d="M5.26403 9.08386L11.799 5.27527C12.1209 5.07464 12.2218 5.29844 12.0765 5.45302L6.65294 9.98487L6.37467 12.2467L5.26403 9.08386ZM13.5538 3.52465L2.0819 7.55958C1.4545 7.72782 1.47449 8.30348 1.93852 8.44194L4.81295 9.27528L5.91271 12.4075C6.04649 12.7503 6.15572 12.8795 6.38402 12.8824C6.624 12.8855 6.71588 12.8041 6.96505 12.5994C7.25684 12.3448 7.70129 11.9442 8.40354 11.3099L11.3934 13.362C11.9437 13.6439 12.3409 13.4978 12.4779 12.8873L14.3524 4.27421C14.5533 3.52592 14.0802 3.30271 13.5538 3.52465Z" fill="#2A2F3C"/>
</g>
</svg>
