<svg width="17" height="17" viewBox="0 0 17 17" fill="none" xmlns="http://www.w3.org/2000/svg">
<g id="WhatsApp">
<path id="path270" fill-rule="evenodd" clip-rule="evenodd" d="M11.8495 9.86934C11.6772 9.77572 10.8309 9.32247 10.6722 9.25846C10.5135 9.19454 10.3978 9.16131 10.274 9.33126C10.1505 9.50066 9.79935 9.8803 9.69296 9.99266C9.58611 10.1051 9.48328 10.1157 9.31091 10.0218C9.139 9.92838 8.58057 9.72348 7.93281 9.10563C7.42885 8.62486 7.09827 8.04186 7.00237 7.86395C6.90647 7.68585 7.00173 7.59513 7.09279 7.51174C7.17464 7.43651 7.27602 7.31464 7.36754 7.2164C7.45887 7.11807 7.49108 7.04673 7.55395 6.93264C7.61673 6.81874 7.59146 6.71589 7.55076 6.62716C7.51006 6.53879 7.19161 5.66887 7.05857 5.31504C6.92554 4.9612 6.77735 5.01381 6.67497 5.00973C6.57259 5.00629 6.45625 4.98719 6.33918 4.98284C6.22221 4.9785 6.0304 5.01507 5.86324 5.18321C5.69589 5.35143 5.2267 5.75552 5.1944 6.6124C5.16201 7.46865 5.75931 8.31982 5.84262 8.43898C5.92602 8.55849 6.9832 10.4151 8.74007 11.1787C10.4974 11.9421 10.5066 11.7093 10.829 11.6922C11.1516 11.6754 11.8829 11.3095 12.0446 10.9087C12.2062 10.5078 12.219 10.1593 12.178 10.0851C12.1368 10.0109 12.0217 9.96269 11.8495 9.86934ZM8.62692 13.9969C7.46508 13.9969 6.38289 13.6511 5.47927 13.0583L3.28059 13.7567L3.99524 11.6485C3.31034 10.7125 2.90575 9.56241 2.90575 8.31982C2.90575 5.18928 5.47234 2.64236 8.62692 2.64236C11.7821 2.64236 14.3486 5.18928 14.3486 8.31982C14.3486 11.4502 11.7821 13.9969 8.62692 13.9969ZM8.62692 1.5C4.83142 1.5 1.7544 4.55322 1.7544 8.31982C1.7544 9.60822 2.11473 10.8133 2.7405 11.8412L1.5 15.5L5.30508 14.2914C6.28982 14.8314 7.4221 15.1396 8.62692 15.1396C12.4231 15.1396 15.5 12.086 15.5 8.31982C15.5 4.55322 12.4231 1.5 8.62692 1.5Z" fill="url(#paint0_linear_69_3460)"/>
</g>
<defs>
<linearGradient id="paint0_linear_69_3460" x1="1.50079" y1="14.4062" x2="15.8124" y2="14.0509" gradientUnits="userSpaceOnUse">
<stop stop-color="#B2B2BD"/>
<stop offset="0.316637" stop-color="white"/>
<stop offset="0.722832" stop-color="#B2B2BD"/>
<stop offset="1" stop-color="#B2B2BD"/>
</linearGradient>
</defs>
</svg>
