<svg width="56" height="56" viewBox="0 0 56 56" fill="none" xmlns="http://www.w3.org/2000/svg">
<rect width="56" height="56" rx="28" fill="url(#paint0_linear_144_26266)"/>
<path d="M37.5279 31.5775L38.0014 35.92C38.0025 36.1985 37.9455 36.4741 37.8339 36.7293C37.7223 36.9845 37.5587 37.2136 37.3535 37.4018C37.1483 37.5901 36.906 37.7335 36.6421 37.8227C36.3783 37.9119 36.0988 37.945 35.8214 37.92C32.7442 37.5856 29.7884 36.5341 27.1914 34.85C24.7752 33.3146 22.7267 31.2661 21.1914 28.85C19.5014 26.2412 18.4496 23.271 18.1214 20.18C18.0964 19.9034 18.1293 19.6247 18.2179 19.3616C18.3065 19.0985 18.449 18.8567 18.6362 18.6516C18.8234 18.4465 19.0512 18.2827 19.3052 18.1705C19.5592 18.0583 19.8337 18.0002 20.1114 18C20.1114 18 22.7466 18.2947 24.4352 18.4835C25.0054 20.5015 25.8953 23.6509 25.8953 23.6509L24.0914 25.91C25.515 28.4135 27.5879 30.4864 30.0914 31.91L32.3505 30.1061C33.2578 30.4446 37.5279 31.5775 37.5279 31.5775Z" stroke="white" stroke-width="2" stroke-linecap="square"/>
<defs>
<linearGradient id="paint0_linear_144_26266" x1="0.0108108" y1="28" x2="55.893" y2="25.4339" gradientUnits="userSpaceOnUse">
<stop stop-color="#242B3F"/>
<stop offset="1" stop-color="#5A6174"/>
</linearGradient>
</defs>
</svg>
