<svg width="56" height="56" viewBox="0 0 56 56" fill="none" xmlns="http://www.w3.org/2000/svg">
<rect width="56" height="56" rx="28" fill="url(#paint0_linear_144_26291)"/>
<path d="M36.6394 26.0802C36.6394 32.8002 27.9994 38.5602 27.9994 38.5602C27.9994 38.5602 19.3594 32.8002 19.3594 26.0802C19.3594 23.7887 20.2697 21.5911 21.89 19.9708C23.5103 18.3505 25.7079 17.4402 27.9994 17.4402C30.2908 17.4402 32.4885 18.3505 34.1088 19.9708C35.7291 21.5911 36.6394 23.7887 36.6394 26.0802Z" stroke="white" stroke-width="2" stroke-linecap="round"/>
<path d="M27.9972 28.9597C29.5878 28.9597 30.8772 27.6703 30.8772 26.0797C30.8772 24.4891 29.5878 23.1997 27.9972 23.1997C26.4066 23.1997 25.1172 24.4891 25.1172 26.0797C25.1172 27.6703 26.4066 28.9597 27.9972 28.9597Z" stroke="white" stroke-width="2" stroke-linecap="round" stroke-linejoin="round"/>
<defs>
<linearGradient id="paint0_linear_144_26291" x1="0.0108108" y1="28" x2="55.893" y2="25.4339" gradientUnits="userSpaceOnUse">
<stop stop-color="#242B3F"/>
<stop offset="1" stop-color="#5A6174"/>
</linearGradient>
</defs>
</svg>
