<svg width="33" height="33" viewBox="0 0 33 33" fill="none" xmlns="http://www.w3.org/2000/svg">
<rect x="0.695312" y="0.35376" width="32" height="32" rx="16" fill="url(#paint0_linear_144_26322)"/>
<path d="M13.9613 16.9376L20.4963 13.129C20.8181 12.9284 20.9191 13.1522 20.7738 13.3068L15.3502 17.8386L15.0719 20.1005L13.9613 16.9376ZM22.251 11.3784L10.7792 15.4133C10.1518 15.5816 10.1718 16.1572 10.6358 16.2957L13.5102 17.129L14.61 20.2612C14.7438 20.604 14.853 20.7332 15.0813 20.7361C15.3213 20.7392 15.4131 20.6578 15.6623 20.4531C15.9541 20.1986 16.3986 19.798 17.1008 19.1637L20.0907 21.2157C20.6409 21.4977 21.0382 21.3516 21.1752 20.7411L23.0496 12.128C23.2506 11.3797 22.7774 11.1565 22.251 11.3784Z" fill="white"/>
<defs>
<linearGradient id="paint0_linear_144_26322" x1="0.70149" y1="16.3538" x2="32.6342" y2="14.8874" gradientUnits="userSpaceOnUse">
<stop stop-color="#242B3F"/>
<stop offset="1" stop-color="#5A6174"/>
</linearGradient>
</defs>
</svg>
