<svg width="33" height="33" viewBox="0 0 33 33" fill="none" xmlns="http://www.w3.org/2000/svg">
<rect x="0.695312" y="0.35376" width="32" height="32" rx="16" fill="url(#paint0_linear_144_26326)"/>
<path fill-rule="evenodd" clip-rule="evenodd" d="M20.0448 17.7231C19.8725 17.6295 19.0262 17.1762 18.8675 17.1122C18.7089 17.0483 18.5931 17.0151 18.4693 17.185C18.3458 17.3544 17.9947 17.7341 17.8883 17.8464C17.7814 17.9589 17.6786 17.9695 17.5062 17.8756C17.3343 17.7821 16.7759 17.5772 16.1281 16.9594C15.6242 16.4786 15.2936 15.8956 15.1977 15.7177C15.1018 15.5396 15.197 15.4489 15.2881 15.3655C15.37 15.2903 15.4713 15.1684 15.5628 15.0702C15.6542 14.9718 15.6864 14.9005 15.7493 14.7864C15.812 14.6725 15.7868 14.5696 15.7461 14.4809C15.7054 14.3925 15.3869 13.5226 15.2539 13.1688C15.1208 12.815 14.9727 12.8676 14.8703 12.8635C14.7679 12.8601 14.6516 12.8409 14.5345 12.8366C14.4175 12.8323 14.2257 12.8688 14.0586 13.037C13.8912 13.2052 13.422 13.6093 13.3897 14.4662C13.3573 15.3224 13.9546 16.1736 14.0379 16.2927C14.1213 16.4122 15.1785 18.2689 16.9354 19.0325C18.6927 19.7959 18.7019 19.5631 19.0243 19.546C19.3469 19.5291 20.0782 19.1632 20.2399 18.7624C20.4015 18.3616 20.4144 18.013 20.3733 17.9389C20.3321 17.8646 20.217 17.8165 20.0448 17.7231ZM16.8222 21.8507C15.6604 21.8507 14.5782 21.5048 13.6746 20.912L11.4759 21.6105L12.1905 19.5022C11.5056 18.5662 11.1011 17.4162 11.1011 16.1736C11.1011 13.043 13.6677 10.4961 16.8222 10.4961C19.9774 10.4961 22.5439 13.043 22.5439 16.1736C22.5439 19.3039 19.9774 21.8507 16.8222 21.8507ZM16.8222 9.35376C13.0267 9.35376 9.94971 12.407 9.94971 16.1736C9.94971 17.462 10.31 18.6671 10.9358 19.695L9.69531 23.3538L13.5004 22.1451C14.4851 22.6852 15.6174 22.9933 16.8222 22.9933C20.6184 22.9933 23.6953 19.9397 23.6953 16.1736C23.6953 12.407 20.6184 9.35376 16.8222 9.35376Z" fill="white"/>
<defs>
<linearGradient id="paint0_linear_144_26326" x1="0.70149" y1="16.3538" x2="32.6342" y2="14.8874" gradientUnits="userSpaceOnUse">
<stop stop-color="#242B3F"/>
<stop offset="1" stop-color="#5A6174"/>
</linearGradient>
</defs>
</svg>
