<svg width="22" height="22" viewBox="0 0 22 22" fill="none" xmlns="http://www.w3.org/2000/svg">
<g id="Icon">
<path id="Vector" d="M6.33641 17L5.59828 17.1329C5.66261 17.4901 5.97347 17.75 6.33641 17.75V17ZM3.45459 1L4.19249 0.865836L4.08052 0.25H3.45459V1ZM0.95459 0.25H0.20459V1.75H0.95459V0.25ZM5.95459 12.25H5.20459V13.75H5.95459V12.25ZM19.4546 13V13.75H20.077L20.1917 13.1382L19.4546 13ZM20.9546 5L21.6917 5.13822L21.8583 4.25H20.9546V5ZM4.45459 4.25H3.70459V5.75H4.45459V4.25ZM19.0046 19C19.0046 19.6904 18.4449 20.25 17.7546 20.25V21.75C19.2734 21.75 20.5046 20.5188 20.5046 19H19.0046ZM17.7546 20.25C17.0642 20.25 16.5046 19.6904 16.5046 19H15.0046C15.0046 20.5188 16.2358 21.75 17.7546 21.75V20.25ZM16.5046 19C16.5046 18.3096 17.0642 17.75 17.7546 17.75V16.25C16.2358 16.25 15.0046 17.4812 15.0046 19H16.5046ZM17.7546 17.75C18.4449 17.75 19.0046 18.3096 19.0046 19H20.5046C20.5046 17.4812 19.2734 16.25 17.7546 16.25V17.75ZM8.60459 19C8.60459 19.6904 8.04495 20.25 7.35459 20.25V21.75C8.87337 21.75 10.1046 20.5188 10.1046 19H8.60459ZM7.35459 20.25C6.66423 20.25 6.10459 19.6904 6.10459 19H4.60459C4.60459 20.5188 5.83581 21.75 7.35459 21.75V20.25ZM6.10459 19C6.10459 18.3096 6.66423 17.75 7.35459 17.75V16.25C5.83581 16.25 4.60459 17.4812 4.60459 19H6.10459ZM7.35459 17.75C8.04494 17.75 8.60459 18.3096 8.60459 19H10.1046C10.1046 17.4812 8.87337 16.25 7.35459 16.25V17.75ZM17.7546 16.25H6.33641V17.75H17.7546V16.25ZM6.33641 17C7.07453 16.8671 7.07452 16.867 7.0745 16.8669C7.07448 16.8668 7.07445 16.8666 7.0744 16.8663C7.07432 16.8659 7.07419 16.8651 7.07401 16.8642C7.07367 16.8623 7.07315 16.8594 7.07247 16.8556C7.0711 16.848 7.06906 16.8367 7.06636 16.8217C7.06097 16.7918 7.05297 16.7473 7.04254 16.6894C7.02167 16.5735 6.99105 16.4035 6.95208 16.1871C6.87413 15.7543 6.76274 15.1358 6.62896 14.393C6.36141 12.9074 6.00432 10.9247 5.64619 8.93618C4.93007 4.96 4.2094 0.958817 4.19249 0.865836L2.71669 1.13416C2.7333 1.22551 3.45354 5.22432 4.16994 9.20206C4.52807 11.1905 4.88516 13.1733 5.15271 14.6589C5.28649 15.4017 5.39788 16.0202 5.47583 16.453C5.5148 16.6694 5.54542 16.8394 5.56629 16.9553C5.57672 17.0132 5.58472 17.0576 5.59011 17.0876C5.5928 17.1025 5.59485 17.1139 5.59622 17.1215C5.5969 17.1253 5.59742 17.1281 5.59776 17.1301C5.59794 17.131 5.59806 17.1317 5.59815 17.1322C5.5982 17.1324 5.59823 17.1326 5.59825 17.1327C5.59827 17.1329 5.59828 17.1329 6.33641 17ZM3.45459 0.25H0.95459V1.75H3.45459V0.25ZM5.95459 13.75H19.4546V12.25H5.95459V13.75ZM20.1917 13.1382L21.6917 5.13822L20.2174 4.86178L18.7174 12.8618L20.1917 13.1382ZM20.9546 4.25H4.45459V5.75H20.9546V4.25Z" fill="#2A2F3C"/>
</g>
</svg>
