<svg width="21" height="20" viewBox="0 0 21 20" fill="none" xmlns="http://www.w3.org/2000/svg">
<g id="search">
<g id="Vector">
<path d="M10.0758 15.8333C13.7577 15.8333 16.7425 12.8486 16.7425 9.16667C16.7425 5.48477 13.7577 2.5 10.0758 2.5C6.39395 2.5 3.40918 5.48477 3.40918 9.16667C3.40918 12.8486 6.39395 15.8333 10.0758 15.8333Z" stroke="#9097A7" stroke-width="2" stroke-linecap="round" stroke-linejoin="round"/>
<path d="M10.0758 15.8333C13.7577 15.8333 16.7425 12.8486 16.7425 9.16667C16.7425 5.48477 13.7577 2.5 10.0758 2.5C6.39395 2.5 3.40918 5.48477 3.40918 9.16667C3.40918 12.8486 6.39395 15.8333 10.0758 15.8333Z" stroke="black" stroke-opacity="0.2" stroke-width="2" stroke-linecap="round" stroke-linejoin="round"/>
</g>
<g id="Vector_2">
<path d="M18.4092 17.5L14.7842 13.875" stroke="#9097A7" stroke-width="2" stroke-linecap="square" stroke-linejoin="round"/>
<path d="M18.4092 17.5L14.7842 13.875" stroke="black" stroke-opacity="0.2" stroke-width="2" stroke-linecap="square" stroke-linejoin="round"/>
</g>
</g>
</svg>
