<?xml version="1.0" encoding="utf-8"?><svg viewBox="0 0 20 20" xmlns="http://www.w3.org/2000/svg" xmlns:xlink="http://www.w3.org/1999/xlink"><style>:root>svg{display:none}:root>svg:target{display:block}</style><svg fill="none" viewBox="0 0 20 20" id="telegram" xmlns="http://www.w3.org/2000/svg"><path d="m6.58 10.73 8.169-4.76c.402-.252.528.028.347.221l-6.78 5.665-.348 2.827L6.58 10.73Zm10.362-6.95L2.602 8.825c-.784.21-.759.93-.179 1.103l3.593 1.042 1.375 3.915c.167.429.304.59.589.594.3.004.415-.098.726-.354.365-.318.92-.819 1.798-1.612l3.738 2.566c.688.352 1.184.17 1.355-.594l2.344-10.766c.25-.936-.34-1.215-.999-.937Z" fill="url(#aa)"/><defs><linearGradient id="aa" x1="18.002" y1="11.67" x2="2.002" y2="11.67" gradientUnits="userSpaceOnUse"><stop stop-color="#5A83EB"/><stop offset="1" stop-color="#3A67DA"/></linearGradient></defs></svg><svg fill="none" viewBox="0 0 20 20" id="whatsapp" xmlns="http://www.w3.org/2000/svg"><path fill-rule="evenodd" clip-rule="evenodd" d="M14.187 11.712c-.215-.117-1.273-.684-1.472-.764-.198-.08-.343-.121-.498.091-.154.212-.593.686-.726.827-.133.14-.262.154-.477.036-.215-.116-.913-.373-1.723-1.145-.63-.6-1.043-1.33-1.163-1.552-.12-.223 0-.336.113-.44.102-.094.229-.247.343-.37.115-.122.155-.212.233-.354.079-.143.047-.271-.004-.382-.05-.11-.448-1.198-.615-1.64-.166-.442-.351-.377-.48-.382-.127-.004-.273-.028-.419-.033a.81.81 0 0 0-.595.25c-.21.21-.796.715-.836 1.787-.04 1.07.706 2.134.81 2.283.105.15 1.426 2.47 3.622 3.424 2.197.955 2.208.664 2.611.642.404-.02 1.318-.478 1.52-.98.202-.5.218-.936.167-1.029-.052-.092-.196-.153-.411-.27Zm-4.028 5.16a7.153 7.153 0 0 1-3.935-1.174l-2.748.873.893-2.635a7.022 7.022 0 0 1-1.362-4.161c0-3.913 3.208-7.097 7.152-7.097s7.152 3.184 7.152 7.097c0 3.913-3.208 7.096-7.152 7.096Zm0-15.622c-4.745 0-8.591 3.817-8.591 8.525 0 1.61.45 3.117 1.233 4.402L1.25 18.75l4.756-1.51a8.61 8.61 0 0 0 4.153 1.06c4.745 0 8.591-3.818 8.591-8.525 0-4.708-3.846-8.525-8.591-8.525Z" fill="url(#ba)"/><defs><linearGradient id="ba" x1="18.752" y1="12.375" x2="1.252" y2="12.375" gradientUnits="userSpaceOnUse"><stop stop-color="#5A83EB"/><stop offset="1" stop-color="#3A67DA"/></linearGradient></defs></svg></svg>